<?xml version="1.0" encoding="UTF-8"?>
<svg version="1.1" xmlns="http://www.w3.org/2000/svg" width="613" height="407">
<path d="M0 0 C2.20472651 1.39245885 4.27691695 2.71963581 6.2109375 4.46875 C6.2109375 5.12875 6.2109375 5.78875 6.2109375 6.46875 C7.10039063 6.85740234 7.10039063 6.85740234 8.0078125 7.25390625 C10.36951891 8.55619471 11.71980196 9.86173478 13.4609375 11.90625 C14.24210938 12.80150391 14.24210938 12.80150391 15.0390625 13.71484375 C16.2109375 15.46875 16.2109375 15.46875 16.2109375 18.46875 C16.8709375 18.46875 17.5309375 18.46875 18.2109375 18.46875 C25.2670063 33.54689701 24.2109375 43.54113675 24.2109375 61.46875 C-0.5390625 61.46875 -25.2890625 61.46875 -50.7890625 61.46875 C-46.85613042 73.65209732 -46.85613042 73.65209732 -41.7890625 79.46875 C-41.7890625 80.12875 -41.7890625 80.78875 -41.7890625 81.46875 C-41.2115625 81.7575 -40.6340625 82.04625 -40.0390625 82.34375 C-38.68535865 83.02060192 -37.3455336 83.72813521 -36.0390625 84.4921875 C-30.29605125 86.98481391 -22.52759972 87.09299546 -16.4140625 85.90625 C-9.09240834 83.00283542 -5.25026613 78.39115726 -1.7890625 71.46875 C3.49560463 71.92828627 7.75208668 73.36295993 12.6328125 75.4140625 C16.42700266 76.9662312 20.3070485 78.22403177 24.2109375 79.46875 C23.46078165 86.25963452 20.24343693 90.15595378 16.2109375 95.46875 C15.4890625 96.5 14.7671875 97.53125 14.0234375 98.59375 C6.12678272 107.61849832 -5.49124437 112.64260511 -17.25097656 113.6875 C-34.58853495 114.71377057 -48.77372109 111.65411166 -62.5390625 100.59375 C-72.78374824 91.33737512 -79.17899496 77.63477104 -79.9309082 63.87255859 C-80.68791398 40.58744432 -77.27459123 24.21693983 -61.17578125 6.71484375 C-45.63702956 -8.05275401 -18.37968917 -10.09080974 0 0 Z M-44.7265625 28.53125 C-47.33655766 32.24851584 -48.7890625 34.90652306 -48.7890625 39.46875 C-34.5990625 39.46875 -20.4090625 39.46875 -5.7890625 39.46875 C-6.8582788 31.98423593 -8.46419699 26.11352938 -14.5390625 21.28125 C-25.70688214 15.27679467 -36.92486915 19.85017503 -44.7265625 28.53125 Z " fill="#F2F2F2" transform="translate(553.7890625,168.53125)"/>
<path d="M0 0 C0 0.66 0 1.32 0 2 C0.9590625 2.1546875 0.9590625 2.1546875 1.9375 2.3125 C2.618125 2.539375 3.29875 2.76625 4 3 C4.495 4.485 4.495 4.485 5 6 C5.99 6.33 6.98 6.66 8 7 C8 7.66 8 8.32 8 9 C9.32 9.66 10.64 10.32 12 11 C12 11.99 12 12.98 12 14 C13.485 14.495 13.485 14.495 15 15 C17.81617462 19.19920699 19.60707898 24.17120715 21 29 C21.25910156 29.77085937 21.51820313 30.54171875 21.78515625 31.3359375 C24.94124926 41.81710219 24 49.03083473 24 61 C-0.75 61 -25.5 61 -51 61 C-49.5856423 67.36460967 -48.84377614 70.70023538 -46 76 C-46 76.66 -46 77.32 -46 78 C-45.01 78.33 -44.02 78.66 -43 79 C-43 79.66 -43 80.32 -43 81 C-42.4225 81.28875 -41.845 81.5775 -41.25 81.875 C-39.8870532 82.5564734 -38.53682134 83.26554225 -37.21484375 84.0234375 C-30.2066792 87.11345714 -21.09764966 86.62206166 -14 84 C-11.64040542 82.50513154 -11.64040542 82.50513154 -10 81 C-9.34 81 -8.68 81 -8 81 C-7.5978125 80.195625 -7.5978125 80.195625 -7.1875 79.375 C-5.09375 75.1875 -5.09375 75.1875 -3 71 C2.93184387 71.4044439 7.68077103 73.42939293 13.109375 75.7890625 C16.37657349 77.15775376 19.5691867 78.14229667 23 79 C22.12739356 84.93372379 19.33758926 90.06617239 16 95 C15.34 95 14.68 95 14 95 C13.773125 95.5775 13.54625 96.155 13.3125 96.75 C8.56062018 104.89607969 -3.50414206 109.86761298 -12.1875 112.3046875 C-25.96401625 114.81720788 -41.3158016 114.0305836 -53.91015625 107.48828125 C-54.59980469 106.99714844 -55.28945313 106.50601563 -56 106 C-56 105.34 -56 104.68 -56 104 C-57.98 103.34 -59.96 102.68 -62 102 C-62 101.34 -62 100.68 -62 100 C-62.59296875 99.75121094 -63.1859375 99.50242187 -63.796875 99.24609375 C-66.31778882 97.82025774 -67.53817911 96.38383287 -69.25 94.0625 C-69.77078125 93.37285156 -70.2915625 92.68320312 -70.828125 91.97265625 C-72 90 -72 90 -72 87 C-72.66 87 -73.32 87 -74 87 C-78.26495032 77.57015572 -80.94619636 69.505161 -81 59 C-81.02578125 58.06542969 -81.0515625 57.13085938 -81.078125 56.16796875 C-81.1249778 53.43879293 -81.08172929 50.72820156 -81 48 C-80.98324219 47.04480469 -80.96648437 46.08960938 -80.94921875 45.10546875 C-80.40949291 33.33944538 -76.02128924 23.34253514 -69 14 C-68.48695313 13.25878906 -67.97390625 12.51757812 -67.4453125 11.75390625 C-66.96835937 11.17511719 -66.49140625 10.59632813 -66 10 C-65.34 10 -64.68 10 -64 10 C-63.773125 9.4225 -63.54625 8.845 -63.3125 8.25 C-59.17990314 1.16554824 -49.5356259 -2.34857668 -42.0625 -4.8125 C-27.8975273 -8.30853581 -12.90562616 -6.7731655 0 0 Z M-35 19 C-35 19.66 -35 20.32 -35 21 C-35.5775 21.12375 -36.155 21.2475 -36.75 21.375 C-43.42512366 23.22920102 -45.87539726 27.45899544 -49.3125 33.1875 C-50.23643616 35.30024705 -50.23643616 35.30024705 -50 39 C-35.81 39 -21.62 39 -7 39 C-7.61804933 31.99149664 -7.61804933 31.99149664 -10.375 26.5 C-10.79523438 25.8296875 -11.21546875 25.159375 -11.6484375 24.46875 C-12.09445312 23.9840625 -12.54046875 23.499375 -13 23 C-13.99 23 -14.98 23 -16 23 C-16 22.34 -16 21.68 -16 21 C-19.74235319 18.55010899 -23.44225419 18.76913857 -27.75 18.875 C-28.79607422 18.88853516 -28.79607422 18.88853516 -29.86328125 18.90234375 C-31.57566958 18.92580112 -33.28788004 18.96166896 -35 19 Z " fill="#F2F2F2" transform="translate(447,169)"/>
<path d="M0 0 C2.58186166 1.77871664 4.98088228 3.58808464 7 6 C7 6.66 7 7.32 7 8 C7.99 8.33 8.98 8.66 10 9 C11.28125 11.046875 11.28125 11.046875 12.5 13.75 C13.10328125 15.04164063 13.10328125 15.04164063 13.71875 16.359375 C17.84241297 28.07661247 18.4240709 39.04037315 18.328125 51.296875 C18.32506022 53.02467687 18.32318957 54.75248122 18.32244873 56.48028564 C18.31788263 60.07061469 18.30358822 63.66071479 18.28125 67.25097656 C18.25271312 71.86122198 18.2420089 76.47129004 18.2375679 81.08161545 C18.23342543 84.63480405 18.22362199 88.18795669 18.21169281 91.74112701 C18.20598797 93.44286055 18.20122997 95.14459752 18.19742584 96.84633636 C18.19059181 99.20849306 18.17698008 101.57050598 18.16113281 103.93261719 C18.16001495 104.63795593 18.15889709 105.34329468 18.15774536 106.07000732 C18.11470838 110.88529162 18.11470838 110.88529162 17 112 C14.78144736 112.08783542 12.56011504 112.10694609 10.33984375 112.09765625 C9.34314415 112.09553383 9.34314415 112.09553383 8.3263092 112.09336853 C6.19666101 112.08775518 4.06711661 112.07520054 1.9375 112.0625 C0.49674631 112.05748671 -0.94400903 112.05292351 -2.38476562 112.04882812 C-5.92321102 112.03778145 -9.46159539 112.02050792 -13 112 C-13.00808685 111.15776886 -13.01617371 110.31553772 -13.02450562 109.44778442 C-13.10274563 101.47462323 -13.19012282 93.50162417 -13.28752708 85.52867317 C-13.33727656 81.43060759 -13.38360676 77.33256515 -13.421875 73.234375 C-13.45899968 69.27256658 -13.5054296 65.31096254 -13.55806351 61.3493309 C-13.57646419 59.84486383 -13.59162381 58.34035319 -13.60334396 56.83581924 C-13.09196948 42.54804433 -13.09196948 42.54804433 -18.5 30 C-19.325 29.34 -20.15 28.68 -21 28 C-21.66 27.34 -22.32 26.68 -23 26 C-25.72555346 25.64119137 -25.72555346 25.64119137 -28.8125 25.6875 C-29.85019531 25.67074219 -30.88789062 25.65398437 -31.95703125 25.63671875 C-35.35638411 26.0425465 -37.17652637 27.13246683 -40 29 C-40.66 29 -41.32 29 -42 29 C-42 29.66 -42 30.32 -42 31 C-42.66 31 -43.32 31 -44 31 C-46.30758751 37.75793486 -48.23847951 43.84391602 -48.31884766 51.03686523 C-48.32889328 51.70113022 -48.3389389 52.3653952 -48.34928894 53.04978943 C-48.37988569 55.21938301 -48.39708957 57.38885459 -48.4140625 59.55859375 C-48.43279316 61.0731764 -48.45236796 62.58774882 -48.4727478 64.10231018 C-48.52387481 68.06910142 -48.56360388 72.03592641 -48.60089111 76.00286865 C-48.64105327 80.05863666 -48.69208963 84.11426658 -48.7421875 88.16992188 C-48.83871648 96.11319346 -48.9221879 104.05652299 -49 112 C-58.57 112 -68.14 112 -78 112 C-78 74.38 -78 36.76 -78 -2 C-68.43 -2 -58.86 -2 -49 -2 C-48.67 0.31 -48.34 2.62 -48 5 C-45.01780996 3.91556726 -42.43689266 2.67063533 -39.6875 1.0625 C-27.65339212 -5.75938281 -12.43163952 -6.8761851 0 0 Z " fill="#F4F4F3" transform="translate(113,167)"/>
<path d="M0 0 C9.9 0 19.8 0 30 0 C30.01458252 2.3011377 30.02916504 4.60227539 30.04418945 6.97314453 C30.09457625 14.5848266 30.16117857 22.19630497 30.23571491 29.80778694 C30.28040032 34.42164481 30.31966047 39.03541474 30.34643555 43.64941406 C30.37248679 48.10403293 30.41290206 52.5583131 30.46318626 57.01272202 C30.47984267 58.71028295 30.49136459 60.40790245 30.49761391 62.1055336 C30.50726849 64.48754444 30.53534286 66.86869122 30.56762695 69.25048828 C30.56547432 70.2981411 30.56547432 70.2981411 30.5632782 71.36695862 C30.65098114 75.95656963 31.60972655 79.09145194 34 83 C37.67032326 86.4868071 40.57630842 87.28363464 45.5 87.4375 C50.0175358 87.28384232 53.10252856 86.39844396 57 84 C57.66 84 58.32 84 59 84 C63.95127549 74.28245796 64.46817129 65.36710581 64.51171875 54.58984375 C64.52858993 53.01085536 64.54674341 51.43188021 64.56611633 49.85292053 C64.6133581 45.72502783 64.64333361 41.5971888 64.66955566 37.46911621 C64.6994925 33.24557909 64.74597729 29.02222643 64.79101562 24.79882812 C64.87675457 16.53262805 64.94269745 8.26644616 65 0 C74.9 0 84.8 0 95 0 C95 37.62 95 75.24 95 114 C85.1 114 75.2 114 65 114 C64.505 110.04 64.505 110.04 64 106 C63.236875 106.66 62.47375 107.32 61.6875 108 C59 110 59 110 56 110 C56 110.66 56 111.32 56 112 C45.43246593 117.11258668 33.25233986 118.04006198 22 114.5 C16.49504219 112.15638856 11.9359143 108.4898578 8 104 C8 103.34 8 102.68 8 102 C7.34 102 6.68 102 6 102 C5.37237545 100.77217138 4.74803935 99.54266164 4.125 98.3125 C3.77695313 97.62800781 3.42890625 96.94351563 3.0703125 96.23828125 C2.54050781 95.13033203 2.54050781 95.13033203 2 94 C1.65260773 93.30904739 1.30521545 92.61809479 0.94729614 91.90620422 C-0.32036231 88.01716237 -0.26276374 84.30649344 -0.22705078 80.26245117 C-0.22734283 79.39365326 -0.22763489 78.52485535 -0.22793579 77.62973022 C-0.22654608 74.76737366 -0.2110017 71.90527966 -0.1953125 69.04296875 C-0.1915811 67.05471438 -0.18873473 65.06645816 -0.18673706 63.07820129 C-0.17911063 57.85196838 -0.15947059 52.6258471 -0.1373291 47.3996582 C-0.11684938 42.0639802 -0.10773079 36.72828412 -0.09765625 31.39257812 C-0.0762238 20.92832855 -0.04104966 10.46419103 0 0 Z " fill="#F5F4F4" transform="translate(146,166)"/>
<path d="M0 0 C0.495 15.345 0.495 15.345 1 31 C7.93 31.33 14.86 31.66 22 32 C22 40.58 22 49.16 22 58 C14.74 58 7.48 58 0 58 C0.11851663 65.27753072 0.24278324 72.55493237 0.37231445 79.83227539 C0.41555201 82.30653229 0.45723472 84.78081688 0.49731445 87.25512695 C0.55528841 90.81730483 0.61890423 94.37934477 0.68359375 97.94140625 C0.70030624 99.04271378 0.71701874 100.1440213 0.73423767 101.27870178 C0.83641839 106.60951213 1.08113098 111.74511558 2 117 C9.43659188 119.01670288 16.31604457 119.2137731 24 119 C22.35014395 125.4518761 20.46944042 131.80529325 18.375 138.125 C18.15690674 138.78830322 17.93881348 139.45160645 17.71411133 140.13500977 C16.12383839 144.87616161 16.12383839 144.87616161 15 146 C11.19614319 146.31200319 7.3775506 146.27869861 3.5625 146.3125 C2.50611328 146.34150391 1.44972656 146.37050781 0.36132812 146.40039062 C-7.80725182 146.46581979 -13.76459062 144.61770469 -21 141 C-21 140.34 -21 139.68 -21 139 C-21.66 139 -22.32 139 -23 139 C-23.80710015 137.69693373 -24.59470177 136.38179035 -25.375 135.0625 C-25.81585938 134.33160156 -26.25671875 133.60070312 -26.7109375 132.84765625 C-30.03181284 125.51154073 -30.28545413 118.00387429 -30.22705078 110.06420898 C-30.22734283 109.00950912 -30.22763489 107.95480927 -30.22793579 106.8681488 C-30.22655166 103.41071101 -30.2110337 99.95349352 -30.1953125 96.49609375 C-30.19157911 94.08757139 -30.18873368 91.6790475 -30.18673706 89.27052307 C-30.17912628 82.95274613 -30.15949977 76.63506216 -30.1373291 70.31732178 C-30.11681555 63.86195127 -30.10772358 57.40656563 -30.09765625 50.95117188 C-30.07625143 38.30074175 -30.04253467 25.65037584 -30 13 C-29.34 13 -28.68 13 -28 13 C-28 12.34 -28 11.68 -28 11 C-3.88114754 0 -3.88114754 0 0 0 Z " fill="#F4F3F3" transform="translate(339,134)"/>
<path d="M0 0 C9.57 0 19.14 0 29 0 C29 37.29 29 74.58 29 113 C19.43 113 9.86 113 0 113 C0 75.71 0 38.42 0 0 Z " fill="#F6F6F6" transform="translate(260,166)"/>
<path d="M0 0 C15.84 0 31.68 0 48 0 C48 6.6 48 13.2 48 20 C32.16 20 16.32 20 0 20 C0 13.4 0 6.8 0 0 Z " fill="#EDECED" transform="translate(395,136)"/>
<path d="M0 0 C10.23 0 20.46 0 31 0 C31 7.92 31 15.84 31 24 C20.77 24 10.54 24 0 24 C0 16.08 0 8.16 0 0 Z " fill="#EDECEC" transform="translate(258,136)"/>
</svg>
